<svg xmlns="http://www.w3.org/2000/svg" viewBox="0 0 512 512" role="img" aria-labelledby="title desc">
  <title id="title">py-lipidr sticker</title>
  <desc id="desc">OmicVerse repository hex sticker for py-lipidr.</desc>
  <defs>
    <linearGradient id="bg" x1="112" y1="90" x2="398" y2="430" gradientUnits="userSpaceOnUse">
      <stop offset="0" stop-color="#050706"/>
      <stop offset=".58" stop-color="#020403"/>
      <stop offset="1" stop-color="#000000"/>
    </linearGradient>
  </defs>
  <polygon points="256,34 450,146 450,368 256,480 62,368 62,146" fill="#000000" opacity=".34"/>
  <polygon points="256,22 458,139 458,373 256,490 54,373 54,139" fill="url(#bg)" stroke="#0B0F0A" stroke-width="19" stroke-linejoin="round"/>
  <polygon points="256,22 458,139 458,373 256,490 54,373 54,139" fill="none" stroke="#E8FFE0" stroke-width="12" stroke-linejoin="round"/>
  <g opacity=".22" stroke="#40D06B" stroke-width="2.2">
    <path d="M112 166h288M100 222h312M100 278h312M112 334h288"/>
    <path d="M152 126v236M204 104v274M256 96v286M308 104v274M360 126v236"/>
  </g>
  
  <g id="motif">
    <ellipse cx="238" cy="228" rx="70" ry="92" fill="#FFC928" opacity=".82" stroke="#FFFFFF" stroke-width="7"/>
    <path d="M244 143c-18 54-39 78-76 102" fill="none" stroke="#42D85B" stroke-width="8" stroke-linecap="round"/>
    <path d="M278 164c30 34 48 78 54 132" fill="none" stroke="#00BCD4" stroke-width="8" stroke-linecap="round"/>
    <circle cx="167" cy="284" r="15" fill="#00BCD4"/><circle cx="322" cy="298" r="15" fill="#42D85B"/>
  </g>
  <path id="label" d="M306.10,385.09 L309.83,391.55 L305.90,393.82 L296.09,376.83 L300.02,374.56 L301.06,376.36 Q301.25,374.81 301.95,373.73 Q302.64,372.65 303.93,371.90 Q306.21,370.59 308.71,371.56 Q311.22,372.52 312.86,375.37 Q314.50,378.21 314.09,380.87 Q313.67,383.52 311.39,384.83 Q310.11,385.58 308.82,385.64 Q307.54,385.70 306.10,385.09 Z M304.12,375.61 Q302.85,376.34 302.71,377.66 Q302.57,378.98 303.58,380.72 Q304.59,382.47 305.80,383.01 Q307.02,383.55 308.28,382.82 Q309.54,382.09 309.68,380.78 Q309.81,379.47 308.79,377.71 Q307.78,375.95 306.58,375.42 Q305.38,374.88 304.12,375.61 Z M310.58,368.46 L314.52,366.18 L322.66,372.63 L320.65,362.65 L324.58,360.38 L327.18,376.84 Q327.59,379.35 327.02,380.77 Q326.46,382.19 324.76,383.17 L322.48,384.49 L320.99,381.90 L322.22,381.19 Q323.22,380.61 323.49,380.03 Q323.76,379.45 323.54,378.48 L323.45,378.07 L310.58,368.46 Z M328.65,363.67 L335.56,359.68 L337.40,362.88 L330.50,366.87 L328.65,363.67 Z M333.46,348.86 L337.39,346.59 L347.27,363.70 L343.34,365.97 L333.46,348.86 Z M343.94,349.20 L347.88,346.93 L354.99,359.24 L351.05,361.51 L343.94,349.20 Z M341.18,344.40 L345.11,342.13 L346.96,345.34 L343.03,347.61 L341.18,344.40 Z M361.68,353.00 L365.41,359.47 L361.48,361.74 L351.66,344.74 L355.60,342.47 L356.64,344.27 Q356.83,342.72 357.52,341.64 Q358.22,340.56 359.51,339.82 Q361.78,338.50 364.29,339.47 Q366.79,340.43 368.44,343.28 Q370.08,346.12 369.66,348.78 Q369.25,351.43 366.97,352.75 Q365.68,353.49 364.40,353.55 Q363.12,353.61 361.68,353.00 Z M359.69,343.52 Q358.43,344.25 358.29,345.57 Q358.15,346.89 359.16,348.64 Q360.17,350.39 361.38,350.92 Q362.59,351.46 363.86,350.73 Q365.12,350.00 365.25,348.70 Q365.39,347.39 364.37,345.63 Q363.36,343.87 362.15,343.33 Q360.96,342.79 359.69,343.52 Z M367.78,335.43 L371.71,333.16 L378.82,345.48 L374.89,347.75 L367.78,335.43 Z M365.01,330.64 L368.95,328.37 L370.80,331.58 L366.87,333.85 L365.01,330.64 Z M384.92,327.94 L381.11,321.35 L385.06,319.06 L394.94,336.17 L390.98,338.46 L389.96,336.68 Q389.77,338.23 389.08,339.31 Q388.40,340.38 387.11,341.12 Q384.84,342.43 382.33,341.47 Q379.82,340.50 378.18,337.65 Q376.54,334.81 376.95,332.16 Q377.37,329.50 379.65,328.19 Q380.92,327.45 382.20,327.39 Q383.48,327.34 384.92,327.94 Z M386.92,337.41 Q388.19,336.68 388.32,335.38 Q388.45,334.07 387.44,332.31 Q386.42,330.55 385.22,330.01 Q384.02,329.47 382.76,330.20 Q381.51,330.93 381.37,332.23 Q381.24,333.54 382.26,335.30 Q383.27,337.06 384.47,337.60 Q385.67,338.14 386.92,337.41 Z M402.70,319.74 Q402.04,319.80 401.46,319.98 Q400.89,320.16 400.37,320.46 Q398.85,321.34 398.60,322.78 Q398.34,324.23 399.38,326.04 L402.66,331.72 L398.73,333.99 L391.62,321.67 L395.55,319.40 L396.72,321.42 Q396.78,319.78 397.44,318.66 Q398.11,317.53 399.48,316.74 Q399.68,316.62 399.92,316.51 Q400.16,316.39 400.63,316.19 L402.70,319.74 Z" fill="#FFFFFF"/>
</svg>
